PathFileType	4	(X/Y/Z)	C:/Users/beibeiliu/ov580/test_trc\sequence.19_training_dense_right.trc
DataRate	CameraRate	NumFrames	NumMarkers	Units	OrigDataRate	OrigDataStartFrame	OrigNumFrames
120	120	23	19	mm	120	216	344
Frame#	Time	ThumbCMC			ThumbMCP			ThumbIP			ThumbTip			IndexMCP			IndexPIP			IndexTip			MiddleMCP			MiddlePIP			MiddleTip			RingMCP			RingPIP			RingTip			PinkyMCP			PinkyPIP			PinkyTip			BackHand1			BackHand2			BackHand3	
		X0	Y0	Z0	X1	Y1	Z1	X2	Y2	Z2	X3	Y3	Z3	X4	Y4	Z4	X5	Y5	Z5	X6	Y6	Z6	X7	Y7	Z7	X8	Y8	Z8	X9	Y9	Z9	X10	Y10	Z10	X11	Y11	Z11	X12	Y12	Z12	X13	Y13	Z13	X14	Y14	Z14	X15	Y15	Z15	X16	Y16	Z16	X17	Y17	Z17	X18	Y18	Z18	
215	1.79167	250.245	49.6219	22.8066	239.749	59.4458	-2.68768	234.661	64.0337	-22.4931	228.238	68.4828	-42.6216	228.052	36.7648	-39.8895	206.281	54.4489	-41.7086	205.544	63.7405	-13.613	211.953	30.4216	-36.676	191.738	47.1978	-28.4428	208.346	47.5088	2.5488	196.962	18.9051	-22.2764	190.897	43.9904	-10.0265	207.149	43.2782	8.58783	191.165	10.8515	-10.8611	185.119	32.1903	-0.627995	205.854	36.5465	13.6857	233.746	-1.3793	10.0007	242.07	-0.670296	35.4211	256.984	18.1874	14.9767	
216	1.8	251.109	50.9164	23.9211	240.729	58.0857	-0.943367	235.903	58.7985	-25.2214	228.926	59.959	-46.5595	235.253	33.9542	-39.3066	212.476	48.844	-46.1789	205.724	61.8171	-19.314	218.791	25.0624	-35.63	195.259	45.5554	-29.4806	210.365	51.0701	-3.66006	201.558	19.0392	-26.8084	190.611	39.5273	-16.1026	209.842	40.4412	7.13239	193.443	8.89908	-12.0841	189.933	32.5306	-6.44988	206.633	32.6464	14.3266	234.504	-1.85329	8.91505	238.656	-2.61116	35.7393	253.366	16.7389	21.5307	
217	1.80833	249.857	49.5372	27.2953	244.562	59.4559	-1.06073	238.276	54.7022	-27.447	224.911	46.0721	-41.2877	244.627	33.81	-39.2171	222.529	49.6498	-50.4893	209.729	61.7491	-25.0796	220.337	22.8082	-38.8404	200.08	42.4233	-36.4344	211.297	47.4889	-4.89559	205.452	17.5123	-28.65	192.791	38.7067	-17.838	209.744	40.8046	4.50309	195.786	7.33408	-14.3614	189.08	30.3016	-10.4594	206.094	36.542	7.74967	231.628	-1.69617	13.7796	236.709	-2.29249	37.1384	253.342	16.3945	22.0653	
218	1.81667	250.033	48.4708	29.3265	246.148	56.2182	-1.98806	240.88	50.5263	-27.3992	227.566	40.5835	-43.3377	249.27	31.4663	-36.5813	229.504	47.6823	-50.2603	212.968	59.9741	-26.933	229.577	20.3587	-38.7697	205.838	40.2872	-41.7872	211.361	49.4673	-9.77765	209.333	16.8859	-29.6774	195.544	36.8952	-23.643	209.131	39.6396	2.43785	202.108	7.39638	-16.4168	189.263	28.9163	-15.0044	208.888	35.0462	6.84463	234.198	-2.9189	17.1325	237.121	0.280811	41.8323	252.429	13.7519	24.8832	
219	1.825	247.499	48.6608	31.5346	248.354	57.8646	-0.923407	244.587	48.2119	-25.7667	231.693	37.5478	-41.7632	251.176	27.0955	-32.1216	232.737	43.5393	-48.8758	218.59	59.0461	-31.0337	233.998	16.2574	-38.6467	214.366	35.595	-46.5638	212.865	50.5946	-17.4247	212.019	13.5803	-29.5106	202.644	37.1385	-25.324	212.877	39.8853	1.58059	204.227	8.56876	-19.2161	196.149	28.9114	-18.409	206.882	35.1296	5.24302	232.165	-2.30215	17.8583	233.791	2.65317	43.5746	252.304	17.806	30.8475	
220	1.83333	250.141	51.1245	33.0772	249.841	53.336	0.256911	247.829	48.011	-23.7026	237.029	32.2814	-41.4285	259.319	28.0254	-31.9269	241.15	44.2475	-48.051	225.784	60.5838	-29.3962	238.411	12.8927	-36.4038	221.791	37.017	-46.2948	215.327	47.192	-17.966	220.953	10.8415	-25.9647	205.676	35.2078	-26.1452	214.744	38.9423	0.422422	208.148	8.0541	-17.3282	197.244	30.9977	-15.2439	210.414	35.703	5.03888	231.37	-3.13836	20.0471	230.782	5.3436	48.2206	252.607	16.419	29.0347	
221	1.84167	250.274	49.7949	33.9394	252.93	55.7429	3.37975	252.335	46.2299	-17.949	244.243	30.248	-38.826	263.489	23.388	-27.4301	250.075	36.6897	-45.7138	233.054	58.2072	-30.9963	244.398	11.155	-30.3033	230.329	36.1831	-44.5148	222.016	47.2261	-17.2661	224.492	9.40217	-23.5723	211.007	35.0132	-24.9002	218.486	39.481	0.136575	208.114	3.75742	-16.1425	204.287	27.7249	-18.0162	207.89	33.9476	6.84462	234.246	-3.14031	25.5198	230.78	6.22181	50.8278	253.001	15.3417	37.078	
222	1.85	250.6	48.978	35.197	254.679	53.3812	8.80571	260.431	44.2414	-18.0494	253.325	33.1203	-36.0916	269.746	23.6889	-23.3464	255.233	35.8333	-43.6219	238.512	53.7724	-31.8392	251.69	11.669	-26.7233	235.085	34.6767	-41.9726	226.915	46.4352	-15.683	230.556	10.276	-25.8368	216.868	31.8528	-25.5896	219.952	36.1057	3.71696	213.545	4.61597	-18.5551	208.163	27.9437	-15.7961	214.704	33.8082	5.42261	235.27	-5.19041	26.3556	231.427	4.03472	49.1576	255.763	17.4521	37.1456	
223	1.85833	249.048	46.8973	37.607	259.831	51.1571	8.23973	262.64	45.8424	-10.0886	262.209	31.3837	-36.5064	274.305	23.1512	-18.6047	264.302	36.3238	-41.51	239.945	50.5799	-27.0198	255.059	13.5069	-27.7916	234.858	33.5722	-36.979	228.905	42.2701	-10.4136	233.03	7.71722	-25.8871	221.891	31.8126	-23.7176	221.911	34.5746	5.21753	220.784	-0.431544	-12.4625	212.923	25.7006	-15.6133	215.417	28.3639	10.2621	241.066	-4.17365	28.673	234.425	2.30701	52.1126	256.425	16.6433	43.2674	
224	1.86667	253.05	48.6084	39.5742	260.883	49.4031	11.088	269.105	48.282	-8.10672	275.455	45.5582	-30.7458	275.182	20.3529	-18.2646	262.933	33.6381	-38.0475	243.829	51.6721	-21.0975	259.05	12.6463	-24.8559	235.891	32.2874	-33.987	232.297	41.682	-5.05468	237.604	3.60743	-19.6045	223.686	29.95	-22.9978	227.41	34.0455	5.24345	223.918	-0.378767	-14.7486	217.849	23.67	-15.9279	219.875	29.3874	7.7249	242.305	-6.72966	26.7195	233.25	2.70503	51.5724	256.989	14.5135	44.3482	
225	1.875	255.858	48.6792	39.2661	262.326	54.5985	13.5835	274.179	51.8034	-7.16896	281.871	52.4322	-26.5404	279.438	21.3227	-16.4656	266.86	39.9834	-35.9771	244.918	48.9275	-19.0769	262.655	14.1988	-23.9474	244.465	35.3805	-32.4361	234.976	41.5698	-4.55725	242.757	5.97847	-23.1094	232.697	29.0423	-22.4106	226.062	32.7758	5.06195	232.36	1.00897	-15.6522	218.253	20.6582	-14.9084	225.464	27.159	12.4327	249.381	-3.37296	26.944	235.913	0.475059	52.0403	261.159	16.802	46.8296	
226	1.88333	253.585	49.2523	41.9173	266.739	57.5975	11.767	275.394	58.8012	-5.32767	286.558	61.0103	-25.4818	287.526	30.3596	-11.6339	270.06	40.0238	-34.2363	247.661	49.0474	-19.652	268.794	16.0091	-24.3815	249.808	36.7661	-31.6011	238.493	39.234	-2.63637	252.709	9.34164	-22.4809	237.164	27.3187	-22.5065	233.464	33.2769	4.16241	241.006	-2.29261	-12.6926	229.702	19.8382	-15.4173	230.003	28.048	9.04534	257.299	-6.80429	27.9451	243.861	3.70676	54.2274	265.841	20.4	45.447	
227	1.89167	254.494	50.3565	42.2902	264.263	62.9314	14.035	276.511	61.7862	-5.55627	283.841	65.4691	-21.0921	291.824	35.8203	-14.2449	271.947	46.6467	-32.2945	250.059	49.7976	-16.7516	278.934	20.5723	-22.1424	256.557	36.6682	-31.6349	242.156	38.3636	-3.93443	263.339	11.5802	-20.7968	244.475	28.7549	-21.3014	236.802	29.7937	8.2377	252.896	-0.2257	-13.8585	236.949	19.1134	-13.2954	235.384	22.7754	11.0472	267.903	-1.95898	29.8237	252.453	3.57287	55.8177	269.451	21.6203	49.006	
228	1.9	258.241	56.005	40.9079	262.64	66.2126	17.1009	276.593	66.1339	-2.9073	285.321	71.3987	-21.9301	295.56	43.2428	-8.57497	280.36	49.8244	-30.7477	251.034	53.5626	-14.5259	287.248	25.0299	-15.9738	263.718	36.0929	-31.0546	246.286	40.6363	-3.47244	275.383	14.2846	-14.7956	248.806	25.5394	-20.0932	242.388	29.4448	8.12426	263.529	-3.06245	-11.2482	247.131	13.7638	-16.1859	243.656	25.0094	9.93872	277.297	3.57877	34.9616	262.035	5.76617	56.8122	278.334	30.6234	49.1063	
229	1.90833	253.89	55.2122	44.3052	258.178	64.9711	19.4247	271.999	70.9115	-0.704706	280.047	70.8956	-20.6808	298.352	51.6802	-6.25391	283.03	54.3899	-29.6951	252.155	50.1097	-16.3587	292.55	36.6366	-12.6437	264.44	37.8286	-29.6381	249.776	38.8572	-2.09585	281.581	20.1787	-17.0478	254.796	26.3153	-19.4628	244.991	26.6178	3.77295	272.951	1.85195	-12.6531	254.554	17.157	-12.3595	248.558	21.4397	11.6377	286.542	7.09153	33.0247	268.087	7.46981	60.1826	279.756	34.7943	52.5016	
230	1.91667	255.238	49.968	44.477	259.341	63.1436	17.8548	269.7	66.4261	-1.39135	283.078	54.7724	-20.9186	297.087	62.0658	-3.48278	285.307	60.3006	-27.7055	256.017	53.7011	-22.5488	295.56	39.719	-12.2406	268.161	41.5571	-29.9513	251.265	37.7297	-6.67383	287.313	25.0516	-12.6192	259.143	24.825	-18.1267	252.219	25.6192	8.77432	281.882	7.12219	-10.7434	259.032	13.2816	-12.175	253.002	17.8967	8.01653	291.18	10.8502	37.5308	276.024	5.80744	60.9498	278.992	38.0181	53.4561	
231	1.925	251.33	50.9345	45.8623	255.907	64.3938	17.3595	265.998	68.3619	-2.10793	282.154	52.7369	-18.8864	293.202	68.6749	-2.72566	277.697	64.7983	-29.155	254.643	48.2734	-22.2954	296.378	43.3685	-12.5673	270.61	40.054	-29.535	254.415	31.5468	-6.69172	290.751	28.1379	-11.9834	266.638	24.7111	-19.2276	256.58	19.3299	6.10354	291.814	6.44625	-8.50193	265.479	10.3069	-11.5022	257.664	17.3918	10.0604	296.96	18.2346	38.2823	285.21	10.7438	59.8656	283.39	38.432	52.4423	
232	1.93333	251.33	44.7089	47.9768	252.56	58.7852	19.8896	266.544	66.2869	-2.39791	281.042	54.3012	-20.8775	290.991	70.0611	-5.39548	276.699	63.1574	-28.0581	255.192	46.3508	-22.7609	296.213	48.3568	-14.754	275.214	40.7259	-30.3162	256.801	29.0071	-1.51078	294.953	28.1877	-13.9671	267.358	23.9197	-15.957	261.604	20.7965	9.81829	296.651	14.145	-7.68042	271.189	12.3917	-10.9672	263.77	14.6389	8.78358	302.926	22.9298	36.5772	288.196	11.0476	63.2803	280.24	44.0367	55.5424	
233	1.94167	250.787	43.322	47.8981	249.521	59.1543	19.5455	263.938	66.1355	-2.18913	277.484	58.416	-21.0972	285.234	72.9688	-1.14715	272.952	64.418	-28.6324	256.246	45.8628	-22.6703	294.715	57.1827	-10.6128	275.406	44.0997	-29.4338	257.359	30.5565	-3.48535	297.07	34.1823	-11.0604	274.626	22.0998	-17.6431	265.658	17.5585	10.8505	301.992	17.1991	-3.67781	276.077	11.1736	-9.35512	267.826	10.6936	11.3553	303.656	27.3198	41.7899	293.128	19.6506	62.1087	282.597	43.2384	55.2603	
234	1.95	249.35	39.8551	46.6616	249.811	55.4472	18.1124	259.983	64.7202	-3.52095	278.167	57.9816	-18.0667	282.889	75.4591	-5.22996	272.2	64.8973	-28.5098	252.834	43.2506	-21.0942	294.36	59.1111	-9.2811	277.138	46.2357	-30.1605	261.252	28.8023	-4.42608	297.797	40.2503	-10.0779	277.674	24.0275	-18.3491	267.636	20.2445	12.201	305.75	21.4701	-5.3754	283.162	16.5893	-10.636	271.915	14.7556	10.9123	305.285	35.9784	40.937	294.694	23.7973	62.3364	281.057	46.3263	53.6544	
235	1.95833	249.112	40.2851	43.0903	244.124	51.6751	17.0509	254.633	64.1663	-5.27844	272.062	61.9322	-22.7609	272.392	78.2814	-3.6127	264.456	67.4232	-29.4054	258.764	42.0115	-24.922	289.091	63.9815	-10.6739	274.575	43.6767	-29.6115	264.457	26.9886	-7.68401	298.179	43.8339	-8.07919	281.215	24.9533	-18.4075	271.197	17.851	7.74702	305.598	31.826	-3.00731	285.65	14.0654	-8.8563	277.038	12.6643	11.1353	300.542	43.2892	41.9431	294.313	28.335	61.9478	277.788	50.4121	53.4518	
236	1.96667	246.168	37.887	42.3892	239.032	47.4258	16.8572	249.47	61.8646	-4.46264	266.234	64.9359	-22.9039	268.982	78.3303	-4.26291	260.101	67.7721	-29.3473	252.333	38.6635	-22.5066	284.4	65.5941	-11.3948	272.868	46.3399	-30.2003	266.727	25.4151	-2.49451	295.587	46.6902	-11.9099	281.597	26.2426	-18.7832	271.63	18.9918	6.18362	303.008	36.7316	-7.00182	286.586	21.09	-9.4583	276.596	17.0307	14.9482	302.453	45.684	38.7367	292.249	29.1195	62.2804	274.334	51.2013	50.8975	
237	1.975	243.64	36.8564	40.4783	234.387	45.769	13.8956	238.248	59.5027	-5.2847	245.859	67.6112	-25.0685	264.398	78.178	-4.76521	261.599	65.1574	-29.3927	255.325	33.9355	-18.7602	280.478	66.8992	-15.1812	271.783	42.183	-29.1872	265.58	25.3758	-1.61842	292.17	50.4866	-14.1273	279.139	30.3728	-18.4228	273.418	18.6284	6.19795	303.329	40.5234	-6.39405	288.653	19.7068	-9.97163	278.891	18.6766	12.9128	296.277	53.4512	39.2985	290.323	35.8871	61.0166	270.371	52.4044	53.083	
